<svg width="100" height="70" viewBox="0 0 100 70" fill="none" xmlns="http://www.w3.org/2000/svg">
<path d="M100 70H0V0H100V70ZM4 66H11V63H4V66ZM15 66H85V4H15V66ZM89 66H96V63H89V66ZM54.6748 12C64.8695 12 73.1345 20.2643 73.1348 30.459C73.1348 40.6539 64.8697 48.9189 54.6748 48.9189C50.7322 48.9188 47.0789 47.6811 44.0801 45.5752L32.2422 57.4141C31.4612 58.1949 30.1951 58.195 29.4141 57.4141C28.6332 56.6331 28.6333 55.3669 29.4141 54.5859L41.0664 42.9316C38.0542 39.6465 36.2158 35.2672 36.2158 30.459C36.2161 20.2646 44.4805 12.0004 54.6748 12ZM4 54H11V47H4V54ZM89 54H96V47H89V54ZM54.6748 16C46.6896 16.0004 40.2161 22.4737 40.2158 30.459C40.2158 38.4445 46.6894 44.9185 54.6748 44.9189C62.6605 44.9189 69.1348 38.4447 69.1348 30.459C69.1345 22.4735 62.6604 16 54.6748 16ZM4 38H11V31H4V38ZM89 38H96V31H89V38ZM4 22H11V15H4V22ZM89 22H96V15H89V22ZM4 6H11V4H4V6ZM89 6H96V4H89V6Z" fill="#E6E6E6"/>
</svg>
