<svg width="255" height="72" viewBox="0 0 255 72" fill="none" xmlns="http://www.w3.org/2000/svg">
<path d="M165.724 48.9473C168.204 48.9473 170.404 49.4277 172.324 50.3877C174.244 51.3477 175.737 52.6811 176.804 54.3877C177.897 56.0944 178.444 58.0542 178.444 60.2676C178.444 62.4809 177.897 64.4408 176.804 66.1475C175.737 67.854 174.244 69.2009 172.324 70.1875C170.404 71.1475 168.204 71.6279 165.724 71.6279C163.244 71.6279 161.044 71.1474 159.124 70.1875C157.231 69.2009 155.738 67.854 154.645 66.1475C153.551 64.4408 153.004 62.4809 153.004 60.2676C153.004 58.0542 153.551 56.0944 154.645 54.3877C155.738 52.6811 157.231 51.3477 159.124 50.3877C161.044 49.4278 163.244 48.9473 165.724 48.9473ZM242.717 48.9473C244.877 48.9473 246.863 49.3742 248.677 50.2275C250.517 51.0808 251.983 52.3475 253.076 54.0273C254.196 55.7073 254.757 57.7876 254.757 60.2676C254.757 60.5876 254.743 60.9477 254.717 61.3477C254.69 61.721 254.663 62.0677 254.637 62.3877H239.46C239.533 62.5835 239.618 62.7703 239.717 62.9473C240.09 63.6139 240.623 64.1211 241.316 64.4678C242.01 64.7878 242.85 64.9473 243.837 64.9473C244.85 64.9472 245.677 64.8144 246.316 64.5479C246.983 64.2812 247.677 63.881 248.396 63.3477L253.116 68.1074C252.05 69.254 250.73 70.1338 249.156 70.7471C247.61 71.3337 245.743 71.6279 243.557 71.6279C240.89 71.6279 238.557 71.1341 236.557 70.1475C234.583 69.1608 233.05 67.814 231.957 66.1074C230.864 64.3741 230.316 62.4276 230.316 60.2676C230.316 58.0542 230.85 56.0944 231.917 54.3877C233.01 52.6811 234.49 51.3477 236.356 50.3877C238.25 49.4277 240.37 48.9473 242.717 48.9473ZM100 71.2275H0V1.22754H100V71.2275ZM129.17 58.1299L138.04 43.2275H145.8L145.88 71.2275H137.28L137.212 58.4541L131.12 68.708H126.96L120.88 58.8975V71.2275H112.28V43.2275H120.04L129.17 58.1299ZM195.781 61.084L200.487 49.3477H209.048L200.247 71.2275H190.888L182.088 49.3477H191.367L195.781 61.084ZM223.47 71.2275H214.43V49.3477H223.47V71.2275ZM4 67.2275H11V64.2275H4V67.2275ZM15 67.2275H85V5.22754H15V67.2275ZM89 67.2275H96V64.2275H89V67.2275ZM165.724 55.9873C165.057 55.9874 164.457 56.1478 163.924 56.4678C163.391 56.7877 162.964 57.2676 162.645 57.9072C162.325 58.5206 162.164 59.3076 162.164 60.2676C162.164 61.2009 162.325 62.0013 162.645 62.668C162.964 63.3076 163.391 63.7875 163.924 64.1074C164.457 64.4274 165.057 64.5878 165.724 64.5879C166.39 64.5879 166.991 64.4274 167.524 64.1074C168.057 63.7875 168.484 63.3076 168.804 62.668C169.124 62.0013 169.284 61.2009 169.284 60.2676C169.284 59.3076 169.124 58.5206 168.804 57.9072C168.484 57.2676 168.057 56.7877 167.524 56.4678C166.991 56.1478 166.39 55.9873 165.724 55.9873ZM54.6748 13.2275C64.8695 13.2275 73.1345 21.4919 73.1348 31.6865C73.1348 41.8814 64.8697 50.1465 54.6748 50.1465C50.7322 50.1463 47.0789 48.9087 44.0801 46.8027L32.2422 58.6416C31.4612 59.4224 30.1951 59.4225 29.4141 58.6416C28.6332 57.8606 28.6333 56.5945 29.4141 55.8135L41.0664 44.1592C38.0542 40.8741 36.2158 36.4948 36.2158 31.6865C36.2161 21.4921 44.4805 13.228 54.6748 13.2275ZM242.797 55.1074C242.05 55.1074 241.397 55.2813 240.837 55.6279C240.304 55.9479 239.89 56.4141 239.597 57.0273C239.447 57.326 239.337 57.6596 239.264 58.0273H246.32C246.24 57.6596 246.12 57.326 245.957 57.0273C245.664 56.4141 245.25 55.9479 244.717 55.6279C244.184 55.2813 243.543 55.1075 242.797 55.1074ZM4 55.2275H11V48.2275H4V55.2275ZM89 55.2275H96V48.2275H89V55.2275ZM218.949 38.3877C220.603 38.3877 221.923 38.8013 222.91 39.6279C223.896 40.4545 224.39 41.5209 224.39 42.8271C224.39 44.2137 223.897 45.3609 222.91 46.2676C221.923 47.1476 220.603 47.5879 218.949 47.5879C217.296 47.5878 215.976 47.1475 214.989 46.2676C214.003 45.3876 213.51 44.2939 213.51 42.9873C213.51 41.6809 214.003 40.5879 214.989 39.708C215.976 38.8281 217.296 38.3878 218.949 38.3877ZM54.6748 17.2275C46.6896 17.228 40.2161 23.7013 40.2158 31.6865C40.2158 39.672 46.6894 46.1461 54.6748 46.1465C62.6605 46.1465 69.1348 39.6723 69.1348 31.6865C69.1345 23.701 62.6604 17.2275 54.6748 17.2275ZM4 39.2275H11V32.2275H4V39.2275ZM89 39.2275H96V32.2275H89V39.2275ZM121.9 0.883789C123.51 0.883817 125.096 1.05358 126.66 1.39355C128.224 1.73356 129.629 2.25536 130.876 2.95801L128.462 8.77148C127.283 8.18222 126.139 7.73997 125.028 7.44531C123.94 7.15065 122.875 7.00391 121.832 7.00391C121.061 7.00391 120.449 7.07201 119.996 7.20801C119.543 7.34401 119.214 7.52529 119.01 7.75195C118.829 7.97852 118.738 8.22815 118.738 8.5C118.738 8.90779 118.976 9.23611 119.452 9.48535C119.928 9.71201 120.552 9.90482 121.322 10.0635C122.116 10.2221 122.977 10.3919 123.906 10.5732C124.858 10.7545 125.798 11.0041 126.728 11.3213C127.657 11.6386 128.508 12.0578 129.278 12.5791C130.072 13.1003 130.706 13.7807 131.182 14.6191C131.658 15.4577 131.896 16.5006 131.896 17.7471C131.896 19.1977 131.476 20.5358 130.638 21.7598C129.822 22.961 128.598 23.9357 126.966 24.6836C125.334 25.4089 123.282 25.7715 120.812 25.7715C118.817 25.7714 116.891 25.545 115.032 25.0918C113.174 24.6385 111.644 24.0485 110.442 23.3232L113.026 17.4756C114.16 18.1328 115.417 18.6653 116.8 19.0732C118.205 19.4586 119.565 19.6514 120.88 19.6514C121.65 19.6514 122.251 19.6062 122.682 19.5156C123.135 19.4023 123.464 19.2546 123.668 19.0732C123.872 18.8693 123.974 18.6313 123.974 18.3594C123.974 17.9288 123.736 17.5891 123.26 17.3398C122.784 17.0906 122.15 16.8862 121.356 16.7275C120.586 16.5462 119.735 16.3649 118.806 16.1836C117.877 15.9796 116.936 15.7186 115.984 15.4014C115.055 15.0841 114.194 14.6648 113.4 14.1436C112.63 13.6222 112.006 12.9421 111.53 12.1035C111.054 11.2422 110.816 10.1766 110.816 8.90723C110.816 7.43402 111.224 6.09676 112.04 4.89551C112.879 3.67153 114.114 2.69701 115.746 1.97168C117.401 1.24635 119.452 0.883789 121.9 0.883789ZM147 6.28906C148.836 6.2891 150.524 6.65266 152.065 7.37793C153.629 8.10325 154.876 9.17947 155.806 10.6074C156.758 12.0353 157.233 13.8033 157.233 15.9111C157.233 16.183 157.222 16.4893 157.199 16.8291C157.177 17.1464 157.155 17.4419 157.132 17.7139H144.231C144.293 17.8802 144.365 18.0391 144.449 18.1895C144.767 18.7561 145.22 19.1868 145.81 19.4814C146.399 19.7534 147.113 19.8896 147.952 19.8896C148.813 19.8896 149.516 19.7764 150.06 19.5498C150.626 19.3231 151.216 18.9826 151.828 18.5293L155.84 22.5752C154.933 23.5499 153.811 24.298 152.474 24.8193C151.159 25.318 149.572 25.5674 147.714 25.5674C145.447 25.5674 143.464 25.1482 141.764 24.3096C140.086 23.4709 138.783 22.3265 137.854 20.876C136.924 19.4026 136.46 17.7471 136.46 15.9111C136.46 14.03 136.913 12.3636 137.819 10.9131C138.749 9.4625 140.007 8.32964 141.594 7.51367C143.203 6.69767 145.005 6.28906 147 6.28906ZM170.891 6.28906C174.087 6.28907 176.557 7.00365 178.303 8.43164C180.071 9.85963 180.954 12.1263 180.954 15.2314V25.2275H173.814V22.7979C173.474 23.5263 172.999 24.1103 172.387 24.5479C171.435 25.2278 170.154 25.5673 168.545 25.5674C167.026 25.5674 165.756 25.3065 164.736 24.7852C163.717 24.2639 162.946 23.573 162.425 22.7119C161.903 21.8279 161.643 20.8524 161.643 19.7871C161.643 18.586 161.949 17.5661 162.561 16.7275C163.173 15.8889 164.102 15.2539 165.349 14.8232C166.618 14.3926 168.216 14.1777 170.143 14.1777H173.222C173.119 13.5657 172.852 13.0783 172.421 12.7158C171.877 12.2398 170.981 12.002 169.734 12.002C168.896 12.002 168.046 12.1372 167.185 12.4092C166.323 12.6585 165.587 13.0105 164.975 13.4639L162.526 8.39746C163.614 7.71748 164.918 7.19665 166.437 6.83398C167.955 6.47132 169.44 6.28906 170.891 6.28906ZM216.411 6.28906C218.678 6.28906 220.616 6.77729 222.226 7.75195C223.835 8.7266 224.946 10.0753 225.558 11.7979L219.607 14.7217C219.222 13.8605 218.746 13.2369 218.18 12.8516C217.636 12.4662 217.034 12.2734 216.377 12.2734C215.81 12.2735 215.278 12.4097 214.779 12.6816C214.303 12.9536 213.918 13.3613 213.623 13.9053C213.351 14.4265 213.215 15.0953 213.215 15.9111C213.215 16.7269 213.351 17.4072 213.623 17.9512C213.918 18.4952 214.303 18.9038 214.779 19.1758C215.278 19.4477 215.81 19.5839 216.377 19.584C217.034 19.584 217.636 19.3912 218.18 19.0059C218.746 18.6205 219.222 17.9969 219.607 17.1357L225.558 20.0596C224.946 21.7821 223.835 23.1308 222.226 24.1055C220.616 25.0801 218.678 25.5674 216.411 25.5674C214.281 25.5674 212.388 25.1597 210.733 24.3438C209.079 23.5277 207.775 22.394 206.823 20.9434C205.894 19.4701 205.43 17.7924 205.43 15.9111C205.43 14.03 205.894 12.3636 206.823 10.9131C207.775 9.46257 209.079 8.32961 210.733 7.51367C212.388 6.69771 214.281 6.28908 216.411 6.28906ZM201.003 13.0898C200.663 13.0445 200.357 13.01 200.085 12.9873C199.836 12.9647 199.575 12.9531 199.304 12.9531C198.148 12.9531 197.195 13.2592 196.447 13.8711C195.722 14.4604 195.359 15.4925 195.359 16.9658V25.2275H187.676V6.62988H194.985V8.63965C195.421 8.13929 195.93 7.71844 196.516 7.37793C197.762 6.65266 199.258 6.28913 201.003 6.28906V13.0898ZM238.417 8.11719C238.755 7.82414 239.117 7.56632 239.505 7.34375C240.752 6.64108 242.135 6.28906 243.653 6.28906C245.081 6.28908 246.373 6.58451 247.529 7.17383C248.685 7.74047 249.592 8.63554 250.249 9.85938C250.929 11.0833 251.269 12.67 251.27 14.6191V25.2275H243.585V15.9453C243.585 14.7894 243.382 13.973 242.974 13.4971C242.566 12.9985 242.01 12.7501 241.308 12.75C240.786 12.75 240.298 12.8747 239.845 13.124C239.414 13.3507 239.063 13.7356 238.791 14.2793C238.542 14.8232 238.417 15.5601 238.417 16.4893V25.2275H230.733V0H238.417V8.11719ZM4 23.2275H11V16.2275H4V23.2275ZM89 23.2275H96V16.2275H89V23.2275ZM171.366 17.8838C170.55 17.8838 169.95 18.02 169.564 18.292C169.202 18.5413 169.021 18.9262 169.021 19.4473C169.021 19.8777 169.179 20.2406 169.496 20.5352C169.836 20.8071 170.29 20.9433 170.856 20.9434C171.378 20.9434 171.854 20.8071 172.284 20.5352C172.737 20.2405 173.067 19.7877 173.271 19.1758V17.8838H171.366ZM147.067 11.5254C146.433 11.5254 145.877 11.6732 145.401 11.9678C144.948 12.2397 144.597 12.6361 144.348 13.1572C144.221 13.4112 144.127 13.695 144.064 14.0078H150.062C149.995 13.6951 149.892 13.4112 149.754 13.1572C149.505 12.636 149.153 12.2397 148.699 11.9678C148.246 11.6732 147.702 11.5254 147.067 11.5254ZM4 7.22754H11V5.22754H4V7.22754ZM89 7.22754H96V5.22754H89V7.22754Z" fill="#E6E6E6"/>
</svg>
